<?xml version="1.0" standalone="no"?><!DOCTYPE svg PUBLIC "-//W3C//DTD SVG 1.1//EN" "http://www.w3.org/Graphics/SVG/1.1/DTD/svg11.dtd"><svg t="1622613580476" class="icon" viewBox="0 0 1024 1024" version="1.1" xmlns="http://www.w3.org/2000/svg" p-id="3858" xmlns:xlink="http://www.w3.org/1999/xlink" width="200" height="200"><defs><style type="text/css"></style></defs><path d="M448.27343 47.22C201.01343 77.24 9.29343 287.34 0.34343 536.25c-3.71 103.29 22.7 202.52 76.25 288.64 0.06 0.1 0.14 0.17 0.2 0.26-5.07 12.99-13.02 26.37-26.48 37.2-12.8 10.29-20.71 26.31-20.97 42.73-0.47 29.02 20.25 52.69 47.2 57.29 10.07 1.72 25.42 3.64 43.85 3.64 36.27 0 84.46-7.43 127.61-38.41 32.61-23.41 55.87-61.86 69.48-105.55 6.82-21.9-9.55-44.24-32.5-44.32-15.32-0.05-28.44 10.31-32.8 25-8.7 29.31-23.93 51.91-45.46 67.37-29.25 20.98-64.13 25.36-88.94 25.05 23.86-28.02 32.55-57.82 35.28-80.55 0.84-6.97-0.65-13.56-3.62-19.31-0.94-4.18-2.45-8.28-4.83-12.11-42.5-68.27-64.81-146.32-64.81-227.83 0-255.12 222.19-459.33 483.21-429.27 202.41 23.31 363.82 190.67 379.81 393.79 12.15 154.35-55.47 297.85-177.59 385.85-16.73 12.05-21.29 34.95-10.64 52.6 12 19.9 38.6 25.59 57.46 12C945.52343 874.13 1024.00343 721.96 1024.00343 555.35c0-303.29-265.07-545.83-575.73-508.13z" fill="#333333" p-id="3859"></path><path d="M335.15343 455.75h-5.31c-31.74 0-57.47 25.73-57.47 57.47v37.36c0 31.74 25.73 57.47 57.47 57.47h5.31c31.74 0 57.47-25.73 57.47-57.47v-37.36c0-31.74-25.73-57.47-57.47-57.47zM514.66343 455.75h-5.31c-31.74 0-57.47 25.73-57.47 57.47v37.36c0 31.74 25.73 57.47 57.47 57.47h5.31c31.74 0 57.47-25.73 57.47-57.47v-37.36c0-31.74-25.73-57.47-57.47-57.47zM751.63343 513.22c0-31.74-25.73-57.47-57.47-57.47h-5.31c-31.74 0-57.47 25.73-57.47 57.47v37.36c0 31.74 25.73 57.47 57.47 57.47h5.31c31.74 0 57.47-25.73 57.47-57.47v-37.36z"  fill='#506AD4' p-id="3860"></path></svg>