<?xml version="1.0" standalone="no"?><!DOCTYPE svg PUBLIC "-//W3C//DTD SVG 1.1//EN" "http://www.w3.org/Graphics/SVG/1.1/DTD/svg11.dtd"><svg t="1622613553193" class="icon" viewBox="0 0 1024 1024" version="1.1" xmlns="http://www.w3.org/2000/svg" p-id="3420" xmlns:xlink="http://www.w3.org/1999/xlink" width="200" height="200"><defs><style type="text/css"></style></defs><path d="M839.68 303.616h-138.24c47.616-93.184 36.352-194.56 34.816-207.872C728.576 36.864 674.304-4.608 615.424 3.072c-58.88 7.68-100.352 61.952-92.672 120.832 2.048 15.36 1.024 68.096-20.48 93.184-4.096 4.608-16.896 19.456-59.904 20.48H332.288c-57.856 0-104.448 45.568-107.008 102.4 0 1.536-0.512 3.072-0.512 4.608v634.88c0 24.576 19.968 44.544 44.544 44.544H573.44c247.808 0 450.56-202.752 450.56-450.56V487.936c0-101.376-82.944-184.32-184.32-184.32zM109.056 303.616H44.544c-24.576 0-44.544 20.48-44.544 44.544v630.784c0 24.576 19.968 44.544 44.544 44.544h64.512c24.576 0 44.544-19.968 44.544-44.544V348.16c0-24.576-19.968-44.544-44.544-44.544z" fill="#DD6572" p-id="3421"></path></svg>