<?xml version="1.0" standalone="no"?><!DOCTYPE svg PUBLIC "-//W3C//DTD SVG 1.1//EN" "http://www.w3.org/Graphics/SVG/1.1/DTD/svg11.dtd"><svg t="1622617270132" class="icon" viewBox="0 0 1024 1024" version="1.1" xmlns="http://www.w3.org/2000/svg" p-id="3207" xmlns:xlink="http://www.w3.org/1999/xlink" width="200" height="200"><defs><style type="text/css"></style></defs><path d="M787.692308 78.769231h78.76923v945.230769H157.538462V78.769231h78.76923V0h78.769231v78.769231h78.769231V0h78.769231v78.769231h78.76923V0h78.769231v78.769231h78.769231V0h78.769231v78.769231zM315.076923 433.230769v78.769231h78.769231v-78.769231H315.076923z m118.153846 0v78.769231h275.692308v-78.769231H433.230769z m-118.153846 157.538462v78.769231h78.769231v-78.769231H315.076923z m118.153846 0v78.769231h275.692308v-78.769231H433.230769z m-118.153846 157.538461v78.769231h78.769231v-78.769231H315.076923z m118.153846 0v78.769231h196.923077v-78.769231H433.230769z" fill='#fad41b'  p-id="3208"></path></svg>